Coordinates
version=1
nRows=10
nColumns=34
inDegrees=yes

Units are S.I. units (second, meters, Newtons, ...)
If the header above contains a line with 'inDegrees', this indicates whether rotational values are in degrees (yes) or radians (no).

endheader
time	pelvis_tilt	pelvis_list	pelvis_rotation	pelvis_tx	pelvis_ty	pelvis_tz	hip_flexion_r	hip_adduction_r	hip_rotation_r	knee_angle_r	ankle_angle_r	subtalar_angle_r	mtp_angle_r	hip_flexion_l	hip_adduction_l	hip_rotation_l	knee_angle_l	ankle_angle_l	subtalar_angle_l	mtp_angle_l	lumbar_extension	lumbar_bending	lumbar_rotation	arm_flex_r	arm_add_r	arm_rot_r	elbow_flex_r	pro_sup_r	arm_flex_l	arm_add_l	arm_rot_l	elbow_flex_l	pro_sup_l
      3.41666670	     -5.49653455	     -1.51716211	      0.94979409	     -0.86848145	      1.12040780	     -0.03156928	     -1.58366839	     -3.99597969	     -8.04310229	      0.00000000	     11.55185529	     -2.51009724	      0.00000000	      0.61148093	     -5.14834102	     -5.24876383	      0.00000000	      8.46118922	     -2.24490996	      0.00000000	      3.52422044	      2.51458956	     -3.90037922	     -8.22666515	     -4.91390964	    -14.48213936	     26.93255860	     82.62979887	     -7.01275446	    -18.12691417	     18.05300304	     70.93172513	     83.01699734
      3.43333330	     -5.42536570	     -1.52468401	      1.12351184	     -0.86864957	      1.12055090	     -0.03157119	     -1.65963258	     -3.95934422	     -8.08282249	      0.00000000	     11.56404185	     -2.48079713	      0.00000000	      0.57177500	     -5.17562351	     -5.11779393	      0.00000000	      8.41345641	     -2.24223550	      0.00000000	      3.32818892	      2.40260164	     -3.62651261	     -8.42543334	     -4.96294486	    -14.19834341	     27.11119052	     82.14286971	     -8.06019166	    -17.64832796	     18.06704700	     67.64607263	     83.13147983
      3.45000000	     -5.33800759	     -1.55112388	      1.39509835	     -0.86881109	      1.12068015	     -0.03164012	     -1.77521145	     -3.89451212	     -8.22719699	      0.00000000	     11.59343260	     -2.44273373	      0.00000000	      0.53877111	     -5.22126929	     -4.96063701	      0.00000000	      8.37506201	     -2.18703103	      0.00000000	      3.12364728	      2.26359835	     -3.38384212	     -8.65094400	     -4.95410944	    -13.96638464	     27.28668396	     81.66432054	     -8.95060159	    -17.26935731	     18.08729514	     64.15881257	     83.23608962
      3.46666670	     -5.26659797	     -1.59233233	      1.71719431	     -0.86905207	      1.12041419	     -0.03167944	     -1.88853511	     -3.81181234	     -8.44829700	      0.00000000	     11.63268227	     -2.40165146	      0.00000000	      0.53145448	     -5.28389091	     -4.81293653	      0.00000000	      8.35174723	     -2.07128039	      0.00000000	      2.93956843	      2.10251697	     -3.14325311	     -8.91504032	     -4.90702562	    -13.77028219	     27.42764426	     81.21538922	     -9.68773253	    -16.91736858	     18.14860871	     60.46471580	     83.33334667
      3.48333330	     -5.17038543	     -1.45789695	      2.05220549	     -0.86950740	      1.11945978	     -0.03177198	     -2.03834896	     -3.92428746	     -8.62470575	      0.00000000	     11.75260330	     -2.42708396	      0.00000000	      0.49809292	     -5.14566244	     -4.71356949	      0.00000000	      8.37173763	     -1.99741883	      0.00000000	      2.65650237	      1.66675005	     -3.14777782	     -9.07794814	     -4.74052372	    -13.67054347	     27.57922897	     80.96605123	    -10.49428195	    -16.77245431	     18.31415785	     57.44443482	     83.39839859
      3.50000000	     -5.24737979	     -1.63580255	      2.47853289	     -0.86978697	      1.11883120	     -0.03200717	     -2.01586352	     -3.69129929	     -9.08310534	      0.00000000	     11.75415466	     -2.26194342	      0.00000000	      0.68121411	     -5.35965020	     -4.48595429	      0.00000000	      8.26768331	     -1.85928632	      0.00000000	      2.87292094	      1.61380158	     -2.12888655	     -9.82473337	     -4.64311283	    -13.62509780	     27.65209901	     79.80454264	     -9.68152586	    -16.39616498	     19.73739185	     52.93906987	     83.94433294
      3.51666670	     -4.98128522	     -1.61836551	      3.15195537	     -0.87010387	      1.11967242	     -0.03262855	     -2.40401110	     -3.64709552	     -9.51789200	      0.00000000	     11.74108844	     -2.52045044	      0.00000000	      0.54049891	     -5.36686325	     -4.12004970	      0.00000000	      8.13861942	     -1.54783251	      0.00000000	      2.41251448	      1.30192131	     -2.81594343	     -9.60998324	     -4.51733232	    -13.72534084	     27.93867695	     79.59505783	     -9.84999691	    -16.20259799	     20.02357308	     50.42224395	     84.01832444
      3.53333330	     -4.72199927	     -1.66688466	      3.73153160	     -0.87021617	      1.12097118	     -0.03314166	     -2.77462756	     -3.53291447	    -10.03922226	      0.00000000	     11.73152016	     -2.52726235	      0.00000000	      0.39503206	     -5.45907825	     -3.81644014	      0.00000000	      8.01739119	     -1.27130163	      0.00000000	      2.17667008	      1.05643510	     -2.91941240	     -9.52971604	     -4.41234971	    -13.84896838	     28.11419414	     79.39084932	     -9.29791193	    -15.72580738	     20.23449982	     47.28856166	     84.11607530
      3.55000000	     -4.62881953	     -1.75481513	      3.95533246	     -0.87019035	      1.12144934	     -0.03316001	     -2.91261409	     -3.39962360	    -10.31789708	      0.00000000	     11.84257056	     -2.11305461	      0.00000000	      0.36111228	     -5.58962831	     -3.87551305	      0.00000000	      7.88459040	     -1.11858343	      0.00000000	      2.38600355	      0.88617068	     -1.76476766	    -10.09312381	     -4.19489594	    -14.77474425	     28.60700403	     78.77961047	     -7.90414160	    -15.42148941	     22.03177256	     43.87223414	     84.72019585
      3.56666670	     -4.30034033	     -1.75659739	      4.38317616	     -0.87037627	      1.12163157	     -0.03354877	     -3.33841644	     -3.33867281	    -10.66064661	      0.00000000	     11.76450339	     -2.33916172	      0.00000000	      0.09372787	     -5.63677286	     -3.64289465	      0.00000000	      7.91837819	     -0.89956546	      0.00000000	      2.18723849	      0.63779936	     -2.23713036	     -9.83705830	     -4.08013205	    -14.99678087	     28.91985389	     78.71476230	     -8.14042104	    -15.29146768	     22.23038490	     42.11369197	     84.77710232
